# xmcd
#
# Track frame offsets:
#	150
#	19293
#	36295
#	53505
#	70155
#	87433
#	92285
#	111398
#	129990
#	149853
#	169843
#	188625
#
# Disc length: 2663 seconds
#
# Revision: 1
# Processed by: cddbd v1.4PL0 Copyright (c) Steve Scherf et al.
# Submitted via: audiograbber 1.82.01
#
DISCID=a40a650c
DTITLE=Herrey - Där vindarna möts
DYEAR=1995
DGENRE=
TTITLE0=min ensamma vrå
TTITLE1=Öppna dina ögon
TTITLE2=Hon ger dig allt
TTITLE3=Om jag stannar kvar
TTITLE4=Det går runt
TTITLE5=Epilog
TTITLE6=Hanna
TTITLE7=Här vill jag leva
TTITLE8=Stjärnor i moln
TTITLE9=Du är allt för mig
TTITLE10=Livet i dig
TTITLE11=någon att älska
EXTD=
EXTT0=
EXTT1=
EXTT2=
EXTT3=
EXTT4=
EXTT5=
EXTT6=
EXTT7=
EXTT8=
EXTT9=
EXTT10=
EXTT11=
PLAYORDER=
